<svg width="541" height="564" viewBox="0 0 541 564" fill="none" xmlns="http://www.w3.org/2000/svg">
<path fill-rule="evenodd" clip-rule="evenodd" d="M527.512 307.723L528.151 309.612L528.793 311.515L529.435 313.434L530.076 315.367L530.716 317.317L531.352 319.282L531.983 321.264L532.607 323.262L533.223 325.277L533.828 327.308L534.422 329.356L535.001 331.421L535.565 333.502L536.111 335.6L536.637 337.713L537.142 339.842L537.623 341.986L538.08 344.144L538.509 346.316L538.909 348.502L539.28 350.7L539.618 352.91L539.923 355.131L540.192 357.362L540.425 359.602L540.621 361.85L540.777 364.106L540.893 366.368L540.968 368.635L541 370.906L540.989 373.18L540.934 375.456L540.835 377.733L540.69 380.009L540.5 382.284L540.263 384.556L539.979 386.825L539.649 389.089L539.271 391.346L538.846 393.597L538.374 395.84L537.855 398.074L537.289 400.297L536.675 402.509L536.015 404.709L535.308 406.896L534.555 409.068L533.756 411.226L532.912 413.367L532.023 415.492L531.088 417.598L530.11 419.686L529.089 421.755L528.025 423.804L526.92 425.832L525.774 427.839L524.589 429.825L523.365 431.789L522.104 433.732L520.806 435.652L519.474 437.55L518.108 439.426L516.71 441.28L515.281 443.111L513.822 444.921L512.335 446.71L510.82 448.478L509.28 450.225L507.716 451.952L506.128 453.66L504.519 455.349L502.889 457.02L501.24 458.674L499.573 460.311L497.889 461.933L496.189 463.54L494.473 465.133L492.744 466.714L491.002 468.283L489.248 469.841L487.483 471.389L485.706 472.928L483.92 474.46L482.124 475.985L480.319 477.504L478.506 479.018L476.684 480.529L474.855 482.037L473.018 483.544L471.173 485.049L469.321 486.555L467.461 488.061L465.593 489.568L463.718 491.078L461.835 492.591L459.944 494.108L458.043 495.628L456.134 497.153L454.216 498.682L452.287 500.216L450.347 501.755L448.395 503.298L446.432 504.846L444.455 506.398L442.464 507.953L440.459 509.511L438.438 511.072L436.401 512.634L434.347 514.197L432.275 515.76L430.185 517.322L428.074 518.882L425.944 520.438L423.793 521.99L421.62 523.536L419.424 525.075L417.206 526.605L414.965 528.125L412.7 529.633L410.41 531.129L408.096 532.609L405.757 534.074L403.392 535.521L401.002 536.949L398.587 538.356L396.146 539.74L393.679 541.1L391.186 542.435L388.668 543.742L386.125 545.021L383.556 546.269L380.963 547.485L378.345 548.669L375.703 549.817L373.038 550.93L370.349 552.005L367.638 553.041L364.905 554.037L362.151 554.991L359.376 555.903L356.581 556.772L353.768 557.595L350.937 558.373L348.088 559.104L345.223 559.787L342.343 560.422L339.448 561.007L336.54 561.541L333.619 562.025L330.688 562.457L327.746 562.836L324.795 563.164L321.836 563.438L318.87 563.658L315.898 563.825L312.922 563.937L309.942 563.996L306.959 564L303.976 563.95L300.992 563.845L298.008 563.686L295.027 563.473L292.049 563.206L289.075 562.885L286.105 562.51L283.143 562.082L280.187 561.602L277.239 561.069L274.3 560.484L271.371 559.848L268.453 559.161L265.547 558.424L262.653 557.638L259.773 556.802L256.907 555.919L254.055 554.988L251.219 554.01L248.399 552.987L245.596 551.918L242.811 550.806L240.043 549.651L237.293 548.453L234.563 547.214L231.851 545.934L229.159 544.615L226.487 543.258L223.835 541.863L221.204 540.432L218.593 538.965L216.003 537.464L213.433 535.929L210.885 534.362L208.357 532.764L205.85 531.136L203.363 529.479L200.896 527.795L198.45 526.083L196.022 524.347L193.614 522.586L191.224 520.802L188.852 518.996L186.497 517.17L184.159 515.324L181.837 513.459L179.529 511.577L177.236 509.678L174.957 507.764L172.689 505.835L170.433 503.892L168.188 501.937L165.952 499.969L163.725 497.99L161.505 496.001L159.291 494.001L157.083 491.992L154.879 489.973L152.678 487.946L150.479 485.911L148.281 483.867L146.083 481.815L143.884 479.756L141.683 477.689L139.478 475.614L137.27 473.532L135.057 471.441L132.838 469.342L130.612 467.234L128.379 465.118L126.139 462.992L123.889 460.856L121.631 458.709L119.364 456.551L117.086 454.381L114.799 452.198L112.501 450.002L110.194 447.791L107.876 445.565L105.548 443.322L103.211 441.062L100.865 438.783L98.5097 436.484L96.1467 434.165L93.7763 431.823L91.3993 429.459L89.0166 427.071L86.629 424.658L84.2376 422.219L81.8436 419.753L79.4481 417.258L77.0524 414.734L74.6579 412.18L72.2661 409.595L69.8784 406.978L67.4966 404.328L65.1223 401.644L62.7572 398.926L60.4032 396.173L58.0622 393.383L55.7361 390.557L53.427 387.694L51.137 384.794L48.8681 381.855L46.6225 378.879L44.4025 375.863L42.2103 372.809L40.0482 369.716L37.9185 366.584L35.8235 363.413L33.7656 360.202L31.7472 356.954L29.7707 353.667L27.8384 350.342L25.9526 346.979L24.1159 343.579L22.3304 340.143L20.5985 336.671L18.9226 333.165L17.3049 329.624L15.7477 326.05L14.253 322.444L12.8231 318.807L11.4601 315.14L10.166 311.445L8.94266 307.723L7.79208 303.975L6.71593 300.203L5.71579 296.408L4.79305 292.592L3.94895 288.756L3.18458 284.903L2.50088 281.033L1.89863 277.15L1.37847 273.253L0.94091 269.346L0.586298 265.429L0.314864 261.505L0.126708 257.575L0.0218015 253.642L0 249.706L0.0610439 245.769L0.204565 241.834L0.430094 237.901L0.737061 233.973L1.12481 230.05L1.59259 226.135L2.13959 222.229L2.7649 218.333L3.46756 214.449L4.24656 210.577L5.10081 206.721L6.02919 202.879L7.03054 199.055L8.10366 195.248L9.24732 191.461L10.4603 187.694L11.7412 183.947L13.089 180.223L14.5022 176.522L15.9797 172.845L17.52 169.193L19.1221 165.566L20.7847 161.965L22.5066 158.392L24.2866 154.847L26.1236 151.33L28.0165 147.842L29.9642 144.385L31.9658 140.958L34.0204 137.563L36.127 134.2L38.2849 130.87L40.4933 127.573L42.7516 124.311L45.059 121.084L47.4148 117.893L49.8184 114.739L52.269 111.622L54.7658 108.544L57.308 105.504L59.8948 102.503L62.5254 99.543L65.1987 96.6232L67.914 93.7446L70.6703 90.9076L73.4666 88.1127L76.302 85.3603L79.1755 82.6508L82.0861 79.9846L85.0326 77.362L88.0142 74.7832L91.0297 72.2485L94.0782 69.7582L97.1584 67.3122L100.269 64.9109L103.41 62.5542L106.579 60.2423L109.776 57.9752L113 55.7528L116.249 53.5752L119.522 51.4422L122.818 49.3538L126.137 47.3099L129.478 45.3102L132.839 43.3548L136.219 41.4434L139.617 39.5757L143.034 37.7517L146.467 35.9712L149.915 34.2338L153.379 32.5395L156.857 30.8879L160.349 29.279L163.853 27.7126L167.369 26.1883L170.896 24.7062L174.434 23.266L177.983 21.8677L181.54 20.5111L185.107 19.1961L188.682 17.9229L192.264 16.6912L195.854 15.5012L199.451 14.3528L203.054 13.2462L206.664 12.1814L210.278 11.1586L213.898 10.1779L217.523 9.23953L221.152 8.34374L224.784 7.4908L228.421 6.68103L232.06 5.91477L235.702 5.19244L239.346 4.51445L242.993 3.8813L246.64 3.29348L250.289 2.75155L253.939 2.25609L257.589 1.80774L261.238 1.40713L264.887 1.05495L268.534 0.751913L272.18 0.498745L275.823 0.296199L279.464 0.14504L283.1 0.0460464L286.733 0L290.36 0.00768443L293.982 0.0698783L297.597 0.187349L301.205 0.360848L304.805 0.591102L308.395 0.878808L311.976 1.22463L315.545 1.62917L319.102 2.093L322.647 2.61662L326.177 3.20047L329.692 3.84491L333.19 4.55021L336.671 5.31657L340.133 6.14405L343.574 7.03266L346.995 7.98225L350.393 8.99257L353.768 10.0632L357.118 11.1937L360.442 12.3834L363.738 13.6315L367.006 14.9373L370.245 16.3001L373.452 17.7189L376.629 19.193L379.772 20.7215L382.881 22.3034L385.956 23.9378L388.995 25.6236L391.997 27.3598L394.961 29.1454L397.887 30.9792L400.773 32.8601L403.619 34.7868L406.425 36.7582L409.188 38.773L411.909 40.8299L414.587 42.9275L417.221 45.0645L419.811 47.2395L422.356 49.4511L424.856 51.6977L427.311 53.978L429.719 56.2903L432.082 58.6332L434.398 61.0051L436.667 63.4044L438.89 65.8294L441.065 68.2785L443.194 70.7502L445.277 73.2427L447.312 75.7544L449.302 78.2836L451.245 80.8286L453.142 83.3877L454.994 85.9593L456.801 88.5417L458.563 91.1333L460.281 93.7323L461.956 96.3371L463.588 98.9462L465.178 101.558L466.727 104.171L468.235 106.783L469.704 109.393L471.134 112L472.527 114.602L473.883 117.198L475.204 119.786L476.489 122.366L477.741 124.938L478.96 127.499L480.146 130.049L481.301 132.588L482.426 135.116L483.52 137.631L484.586 140.133L485.623 142.622L486.632 145.098L487.614 147.561L488.569 150.01L489.499 152.445L490.403 154.866L491.282 157.274L492.136 159.668L492.966 162.049L493.773 164.415L494.556 166.769L495.316 169.109L496.054 171.435L496.769 173.749L497.463 176.05L498.134 178.337L498.785 180.612L499.414 182.875L500.023 185.125L500.611 187.362L501.179 189.587L501.727 191.8L502.255 194.001L502.765 196.19L503.256 198.367L503.729 200.531L504.184 202.684L504.621 204.824L505.043 206.952L505.448 209.068L505.837 211.171L506.213 213.262L506.574 215.34L506.923 217.405L507.26 219.457L507.586 221.496L507.902 223.522L508.21 225.534L508.511 227.532L508.806 229.517L509.096 231.487L509.382 233.444L509.666 235.388L509.949 237.317L510.232 239.233L510.516 241.136L510.803 243.026L511.092 244.904L511.386 246.769L511.685 248.622L511.99 250.464L512.303 252.295L512.623 254.116L512.952 255.927L513.29 257.728L513.639 259.522L513.998 261.307L514.368 263.086L514.75 264.858L515.144 266.625L515.551 268.387L515.971 270.146L516.403 271.901L516.848 273.654L517.307 275.406L517.779 277.158L518.264 278.91L518.762 280.664L519.273 282.42L519.796 284.179L520.332 285.943L520.879 287.711L521.438 289.485L522.007 291.266L522.587 293.054L523.177 294.851L523.775 296.657L524.382 298.472L524.996 300.299L525.618 302.136L526.244 303.985L526.876 305.848L527.512 307.723Z" fill="url(#paint0_linear_40_560)"/>
<defs>
<linearGradient id="paint0_linear_40_560" x1="8751.31" y1="-8923.95" x2="9145.71" y2="-8537.18" gradientUnits="userSpaceOnUse">
<stop stop-color="#9999E4"/>
<stop offset="1" stop-color="#0E0E36"/>
</linearGradient>
</defs>
</svg>
